<svg xmlns="http://www.w3.org/2000/svg" xmlns:xlink="http://www.w3.org/1999/xlink" version="1.1" style="enable-background:new 0 0 250 250;" xml:space="preserve" width="186" height="200"><rect id="backgroundrect" width="100%" height="100%" x="0" y="0" fill="none" stroke="none"/>
<style type="text/css">
	.st0{fill:#DD0031;}
	.st1{fill:#C3002F;}
	.st2{fill:#FFFFFF;}
</style>

<g class="currentLayer" style=""><title>Layer 1</title><g id="svg_1" class="">
	<polygon class="st0" points="93.10000038146973,0 93.10000038146973,0 93.10000038146973,0 0,33.20000076293945 14.19999885559082,156.3000030517578 93.10000038146973,200 93.10000038146973,200 93.10000038146973,200 171.9999942779541,156.3000030517578 186.20000648498535,33.20000076293945 " id="svg_2"/>
	<polygon class="st1" points="93.10000038146973,0 93.10000038146973,22.200000762939453 93.10000038146973,22.099998474121094 93.10000038146973,123.39999389648438 93.10000038146973,123.39999389648438 93.10000038146973,200 93.10000038146973,200 171.9999942779541,156.3000030517578 186.20000648498535,33.20000076293945 93.10000038146973,0 " id="svg_3"/>
	<path class="st2" d="M93.10000038146973,22.1 L34.900000381469724,152.6 h0 h21.7 h0 l11.7,-29.2 h49.4 l11.7,29.2 h0 h21.7 h0 L93.10000038146973,22.1 L93.10000038146973,22.1 L93.10000038146973,22.1 L93.10000038146973,22.1 L93.10000038146973,22.1 zM110.10000038146973,105.4 H76.10000038146973 l17,-40.9 L110.10000038146973,105.4 z" id="svg_4"/>
</g></g></svg>